<svg width="512" height="512" viewBox="0 0 512 512" xmlns="http://www.w3.org/2000/svg">
  <defs>
    <linearGradient id="shine" x1="0%" y1="100%" x2="100%" y2="0%">
      <stop offset="0%" style="stop-color:white;stop-opacity:0" />
      <stop offset="50%" style="stop-color:white;stop-opacity:0.1" />
      <stop offset="100%" style="stop-color:white;stop-opacity:0.2" />
    </linearGradient>
    <clipPath id="box-clip">
       <rect x="0" y="0" width="512" height="512" rx="120" ry="120" />
    </clipPath>
  </defs>
  <rect x="0" y="0" width="512" height="512" rx="120" ry="120" fill="#881337" />
  <rect x="0" y="0" width="512" height="512" rx="120" ry="120" fill="url(#shine)" />
  <g clip-path="url(#box-clip)">
    <g transform="translate(180, 180) rotate(25) scale(2.5)" opacity="0.15">
      <path d="M100 0 C130 0 160 40 160 70 C190 70 200 100 200 100 C200 100 190 130 160 130 C160 160 130 200 100 200 C70 200 40 160 40 130 C10 130 0 100 0 100 C0 100 10 70 40 70 C40 40 70 0 100 0 Z" fill="white" />
      <path d="M100 20 C120 20 140 50 140 70 C160 70 180 90 180 100 C180 110 160 130 140 130 C140 150 120 180 100 180 C80 180 60 150 60 130 C40 130 20 110 20 100 C20 90 40 70 60 70 C60 50 80 20 100 20 Z" fill="white" />
    </g>
  </g>
  <text x="50%" y="43%" text-anchor="middle" font-family="'Inter', sans-serif" font-weight="900" font-size="160" fill="white" letter-spacing="-5">BELA</text>
  <text x="50%" y="78%" text-anchor="middle" font-family="'Inter', sans-serif" font-weight="900" font-size="160" fill="white" letter-spacing="-5">FLOR</text>
</svg>